<svg xmlns="http://www.w3.org/2000/svg" viewBox="0 0 512 512" style="enable-background:new 0 0 512 512" xml:space="preserve"><path style="fill:#9ea8b2" d="M311.238 324.624h-13.295l-21.956 39.624-19.986-13.009-19.988 13.009-21.956-39.624h-13.293c-22.886 0-41.43 18.549-41.43 41.428v13.009c26.492 21.204 60.095 33.891 96.668 33.891 36.571 0 70.174-12.688 96.666-33.891v-13.009c-.002-22.879-18.547-41.428-41.43-41.428z"/><path style="fill:#5d6a7c" d="m242.493 360.031 13.508 22.478 13.506-22.478-13.506-8.791z"/><path style="fill:#c3cad1" d="m234.727 316.86 21.274 34.38-19.988 13.01-22.114-39.916zM277.278 316.86l-21.277 34.38 19.986 13.01 22.114-39.916z"/><path style="fill:#77614a" d="M204.093 214.907c1.532 0 3.018.192 4.449.526v-6.24c45.544 10.005 72.02-18.678 72.02-18.678l22.895 18.678v6.24a19.517 19.517 0 0 1 4.454-.526c4.984 0 9.517 1.874 12.973 4.942v-20.887c0-33.726-27.342-61.067-61.07-61.067h-7.632c-33.726 0-61.067 27.342-61.067 61.067v20.885c3.457-3.066 7.991-4.94 12.978-4.94z"/><path style="fill:#fccf8b" d="M208.542 209.193v50.835c0 25.498 20.675 46.169 46.171 46.169h2.572c25.496 0 46.173-20.67 46.173-46.169v-50.835l-22.895-18.678c-.001 0-26.477 28.683-72.021 18.678z"/><path style="fill:#eab875" d="M208.542 215.433a19.48 19.48 0 0 0-4.449-.526c-10.82 0-19.597 8.772-19.597 19.593 0 10.818 8.777 19.591 19.597 19.591 1.532 0 3.018-.194 4.449-.527v-38.131zM303.457 215.433a19.517 19.517 0 0 1 4.454-.526c10.818 0 19.589 8.772 19.589 19.593 0 10.818-8.771 19.591-19.589 19.591a19.63 19.63 0 0 1-4.454-.527v-38.131zM277.278 316.86l-3.529-13.696a46.064 46.064 0 0 1-16.462 3.032h-2.572a46.08 46.08 0 0 1-16.462-3.032l-3.524 13.696 21.274 34.38 21.275-34.38z"/><circle style="fill:#62b07e" cx="439.983" cy="440.123" r="63.794"/><path style="fill:#5d6a7c" d="M503.918 282.02v-52.039h-42.609a205.492 205.492 0 0 0-14.47-54.115l36.874-21.29-26.022-45.069-36.919 21.314a208.069 208.069 0 0 0-39.593-39.595l21.314-36.918-45.069-26.022-21.289 36.874a205.466 205.466 0 0 0-54.114-14.469V8.082h-52.043v42.609a205.466 205.466 0 0 0-54.114 14.469l-21.289-36.874-45.069 26.022 21.314 36.918a208.08 208.08 0 0 0-39.595 39.595l-36.918-21.314-26.022 45.069 36.874 21.289a205.503 205.503 0 0 0-14.468 54.114H8.082v52.041h42.609a205.52 205.52 0 0 0 14.468 54.115l-36.874 21.289 26.022 45.069 36.918-21.314a208.137 208.137 0 0 0 39.595 39.595l-21.314 36.918 45.069 26.021 21.289-36.874a205.445 205.445 0 0 0 54.114 14.469v42.609h52.043v-42.61a205.476 205.476 0 0 0 54.114-14.469l21.289 36.874 25.628-14.796a63.51 63.51 0 0 1-6.874-28.799c0-35.236 28.563-63.8 63.799-63.8a63.507 63.507 0 0 1 28.845 6.898l14.89-25.792-36.874-21.29a205.485 205.485 0 0 0 14.47-54.114h42.61zM402.756 307.6l-9.551 22.334c-25.884 49.353-77.612 83.019-137.204 83.019-85.512 0-154.831-69.32-154.831-154.831 0-85.51 69.32-154.829 154.831-154.829 85.51 0 154.829 69.32 154.829 154.829 0 17.303-2.838 33.942-8.074 49.478z"/><path style="fill:#231f20" d="M503.918 290.102A8.08 8.08 0 0 0 512 282.02v-52.039a8.08 8.08 0 0 0-8.082-8.082h-35.597a213.709 213.709 0 0 0-11.374-42.536l30.807-17.788a8.08 8.08 0 0 0 2.958-11.04l-26.022-45.069a8.083 8.083 0 0 0-11.04-2.958l-30.858 17.815a216.056 216.056 0 0 0-31.115-31.117l17.815-30.858a8.082 8.082 0 0 0-2.958-11.04l-45.069-26.021a8.069 8.069 0 0 0-6.133-.807 8.078 8.078 0 0 0-4.907 3.765l-17.787 30.807a213.789 213.789 0 0 0-42.535-11.372V8.082A8.08 8.08 0 0 0 282.021 0h-52.043a8.08 8.08 0 0 0-8.082 8.082v35.597a213.624 213.624 0 0 0-42.535 11.373l-17.787-30.807a8.078 8.078 0 0 0-4.907-3.765 8.074 8.074 0 0 0-6.133.807l-45.069 26.021a8.082 8.082 0 0 0-2.958 11.04l17.815 30.858a216.171 216.171 0 0 0-31.117 31.117l-30.858-17.815a8.082 8.082 0 0 0-11.04 2.958l-26.022 45.069a8.08 8.08 0 0 0 2.958 11.04l30.807 17.787a213.89 213.89 0 0 0-11.371 42.535H8.082A8.081 8.081 0 0 0 0 229.979v52.042a8.08 8.08 0 0 0 8.082 8.082h35.597a213.717 213.717 0 0 0 11.372 42.536l-30.807 17.786a8.08 8.08 0 0 0-2.958 11.04l26.022 45.069a8.084 8.084 0 0 0 11.04 2.958l30.858-17.815a216.273 216.273 0 0 0 31.117 31.117l-17.815 30.858a8.082 8.082 0 0 0 2.958 11.04l45.069 26.022a8.076 8.076 0 0 0 6.133.807 8.088 8.088 0 0 0 4.907-3.765l17.787-30.807a213.828 213.828 0 0 0 42.535 11.373v35.597a8.08 8.08 0 0 0 8.082 8.082h52.043a8.08 8.08 0 0 0 8.082-8.082V468.32a213.672 213.672 0 0 0 42.535-11.372l17.787 30.807a8.078 8.078 0 0 0 4.907 3.765 8.063 8.063 0 0 0 6.133-.807l18.694-10.793c12.899 19.322 34.895 32.08 59.82 32.08 39.635 0 71.881-32.246 71.881-71.881 0-24.906-12.737-46.889-32.036-59.793l10.889-18.862a8.082 8.082 0 0 0-2.958-11.04l-30.807-17.788a213.747 213.747 0 0 0 11.373-42.535h35.597v.001zm-8.223 150.017c0 30.723-24.994 55.717-55.717 55.717-21.873 0-40.833-12.675-49.947-31.061a57.747 57.747 0 0 1-.806-1.711c-.159-.351-.324-.698-.477-1.054a54.911 54.911 0 0 1-.774-1.927 54.37 54.37 0 0 1-.752-2.083c-.164-.48-.333-.959-.483-1.443-.172-.557-.324-1.122-.48-1.685-.107-.386-.216-.77-.314-1.158a55.458 55.458 0 0 1-.4-1.727 54.486 54.486 0 0 1-.552-2.893 51.39 51.39 0 0 1-.199-1.363c-.071-.52-.142-1.04-.199-1.565a57.94 57.94 0 0 1-.151-1.731c-.032-.418-.073-.834-.096-1.255a56.653 56.653 0 0 1-.088-3.064c0-30.723 24.994-55.718 55.717-55.718 1.028 0 2.05.033 3.067.088.418.023.832.064 1.249.095a52.88 52.88 0 0 1 1.742.152c.519.056 1.036.127 1.551.197a50.157 50.157 0 0 1 3.059.504c.409.08.817.166 1.224.254.571.125 1.142.252 1.707.394.401.101.799.214 1.197.324.553.152 1.106.301 1.652.47.547.17 1.091.361 1.634.548a56.66 56.66 0 0 1 1.878.683c.658.254 1.316.512 1.968.792.344.148.681.308 1.02.462a55.67 55.67 0 0 1 1.751.827c18.361 9.124 31.019 28.073 31.019 49.931zm-42.406-159.105a197.601 197.601 0 0 1-13.901 51.987 8.084 8.084 0 0 0 3.41 10.132l29.875 17.249-7.222 12.51c-.189-.072-.38-.133-.57-.203-.244-.091-.49-.173-.735-.261a72.805 72.805 0 0 0-2.586-.877c-.209-.066-.42-.127-.63-.192a69.802 69.802 0 0 0-2.749-.782l-.585-.15a72.197 72.197 0 0 0-2.825-.654c-.205-.043-.41-.086-.614-.127a68.154 68.154 0 0 0-2.814-.504c-.234-.037-.467-.077-.7-.111a69.855 69.855 0 0 0-2.747-.35c-.27-.03-.538-.065-.809-.092a72.466 72.466 0 0 0-2.731-.208c-.278-.017-.554-.042-.834-.056a74.5 74.5 0 0 0-3.543-.089c-39.635 0-71.881 32.246-71.881 71.882 0 1.186.033 2.366.089 3.542.014.279.039.555.056.833.054.913.12 1.822.208 2.728.027.27.061.54.092.81.1.919.214 1.835.35 2.747.034.233.074.464.111.697a72.374 72.374 0 0 0 .629 3.424 69.001 69.001 0 0 0 .8 3.404c.245.934.511 1.864.794 2.789.059.195.116.391.178.585.28.887.581 1.768.897 2.645.08.223.156.449.238.671.068.182.125.366.194.548l-12.351 7.132-17.248-29.875a8.084 8.084 0 0 0-10.132-3.41 197.604 197.604 0 0 1-51.987 13.901 8.082 8.082 0 0 0-7.076 8.018v34.527h-35.879v-34.527a8.08 8.08 0 0 0-7.076-8.018 197.52 197.52 0 0 1-51.987-13.901 8.081 8.081 0 0 0-10.132 3.41l-17.25 29.875-31.071-17.939 17.273-29.92a8.08 8.08 0 0 0-2.106-10.473 199.991 199.991 0 0 1-38.056-38.058 8.083 8.083 0 0 0-10.473-2.105l-29.919 17.273-17.94-31.071L69.2 343.134a8.083 8.083 0 0 0 3.41-10.13 197.645 197.645 0 0 1-13.899-51.989 8.082 8.082 0 0 0-8.018-7.076H16.164v-35.878h34.527a8.08 8.08 0 0 0 8.018-7.076 197.648 197.648 0 0 1 13.899-51.988 8.083 8.083 0 0 0-3.41-10.131l-29.874-17.25 17.94-31.071 29.919 17.273a8.084 8.084 0 0 0 10.473-2.106 199.98 199.98 0 0 1 38.056-38.056 8.082 8.082 0 0 0 2.106-10.473l-17.273-29.919 31.071-17.939L168.864 69.2a8.085 8.085 0 0 0 10.132 3.41 197.507 197.507 0 0 1 51.987-13.9 8.082 8.082 0 0 0 7.076-8.018V16.164h35.879v34.527a8.08 8.08 0 0 0 7.076 8.018 197.65 197.65 0 0 1 51.987 13.9 8.086 8.086 0 0 0 10.132-3.41l17.248-29.875 31.071 17.939-17.273 29.919a8.08 8.08 0 0 0 2.106 10.473 200.005 200.005 0 0 1 38.055 38.056 8.08 8.08 0 0 0 10.473 2.106l29.919-17.273 17.941 31.071-29.875 17.249a8.084 8.084 0 0 0-3.41 10.132 197.56 197.56 0 0 1 13.901 51.988 8.082 8.082 0 0 0 8.018 7.076h34.527v35.875h-34.526a8.088 8.088 0 0 0-8.019 7.079z"/><path style="fill:#231f20" d="M256.001 95.212c-89.831 0-162.913 73.082-162.913 162.911 0 51.024 23.585 96.637 60.419 126.53.242.253.498.496.776.718 26.883 21.516 58.891 33.671 93.038 35.431.192.01.383.021.575.03 1.092.053 2.185.094 3.281.125.29.009.579.021.869.027 1.316.031 2.634.051 3.956.051 1.651 0 3.299-.034 4.946-.085.434-.013.869-.026 1.302-.042 1.454-.056 2.906-.129 4.356-.225.747-.047 1.49-.109 2.234-.167.656-.053 1.313-.109 1.968-.169 54.855-4.952 103.613-37.193 129.555-86.659a8.082 8.082 0 0 0-14.314-7.508 147.496 147.496 0 0 1-25.541 35.008c-2.453-25.025-23.61-44.646-49.269-44.646h-10.926l-16.277-5.843-.787-3.052c16.317-8.931 27.556-26.005 28.242-45.716 13.571-1.762 24.09-13.388 24.09-27.432 0-6.834-2.495-13.094-6.615-17.927v-17.611c0-38.13-31.021-69.149-69.152-69.149h-7.632c-38.13 0-69.149 31.02-69.149 69.149v17.608c-4.123 4.834-6.62 11.094-6.62 17.929 0 14.044 10.521 25.669 24.094 27.432.685 19.712 11.925 36.786 28.242 45.717l-.784 3.05-16.281 5.843H200.76c-25.61 0-46.741 19.545-49.26 44.502-26.111-26.508-42.252-62.863-42.252-102.921 0-80.917 65.832-146.747 146.749-146.747s146.747 65.83 146.747 146.747c0 16.057-2.574 31.835-7.651 46.897a8.082 8.082 0 0 0 15.318 5.162c5.637-16.726 8.497-34.243 8.497-52.06.004-89.826-73.078-162.908-162.907-162.908zm-11.992 218.004c.32.065.644.111.966.169.532.097 1.063.199 1.601.28.439.067.88.113 1.321.168.452.057.901.123 1.357.168.549.055 1.101.087 1.652.126.355.025.707.061 1.064.079.912.045 1.827.07 2.745.07h2.572c.918 0 1.834-.024 2.748-.07.328-.016.65-.051.975-.072.582-.04 1.165-.074 1.745-.134.405-.041.805-.1 1.208-.15.491-.06.985-.113 1.474-.188.473-.071.94-.164 1.408-.247.383-.069.767-.125 1.149-.202l.598 2.322-12.59 20.343-12.59-20.345.597-2.317zm10.247 48.803 1.745-1.135 2.563 1.668-2.564 4.266-2.564-4.266.82-.533zm18.866-9.278-5.573-3.627-.519-.338 13.676-22.098 5.72 2.053-13.304 24.01zm38.417-107.319v-21.827a11.494 11.494 0 0 1 3.98 2.299c.041.037.086.068.127.103 2.311 2.107 3.771 5.135 3.771 8.503 0 5.078-3.305 9.399-7.878 10.922zm-112.341-46.46c0-29.216 23.77-52.985 52.985-52.985h7.632c29.217 0 52.988 23.77 52.988 52.985v8.301c-.047-.009-.096-.013-.143-.022a28.226 28.226 0 0 0-1.171-.178c-.082-.011-.162-.027-.244-.037-.015-.055-.042-.107-.058-.161a8.073 8.073 0 0 0-.306-.843c-.03-.07-.055-.142-.086-.211a8.227 8.227 0 0 0-.526-.962c-.046-.073-.1-.142-.149-.213a8.272 8.272 0 0 0-.531-.694c-.069-.081-.136-.161-.208-.238a8.15 8.15 0 0 0-.811-.775l-22.895-18.678a8.074 8.074 0 0 0-10.884.62c-.045.045-.094.086-.138.134a20.268 20.268 0 0 1-.866.859l-.003.003c-3.633 3.439-18.853 16.349-43.354 17.304-.039.001-.075.004-.114.006-.908.034-1.831.052-2.765.052-5.63 0-11.441-.65-17.271-1.93a8.084 8.084 0 0 0-6.8 1.595 8.002 8.002 0 0 0-1.035 1.015 8.045 8.045 0 0 0-.545.706c-.048.07-.1.136-.145.207-.2.313-.379.636-.536.972-.033.071-.059.145-.089.217a8.002 8.002 0 0 0-.309.851c-.017.056-.044.108-.059.164-.087.011-.173.028-.261.039-.381.05-.761.107-1.137.172-.054.01-.108.015-.162.025v-8.3h-.004zm-6.619 35.537a11.47 11.47 0 0 1 3.819-8.545c.026-.023.055-.039.081-.061a11.568 11.568 0 0 1 3.533-2.147l.034-.013c.136-.052.276-.091.414-.137v21.825c-4.574-1.524-7.881-5.844-7.881-10.922zm24.045 25.529v-41.285c.412.048.822.084 1.234.127.421.044.843.092 1.264.13.557.051 1.112.091 1.668.131.385.028.77.063 1.155.085a83.48 83.48 0 0 0 1.863.088c.315.013.631.032.946.042a90.07 90.07 0 0 0 2.794.045c26.282 0 44.564-11.363 53.243-18.262l14.585 11.899v46.997c0 16.32-10.321 30.271-24.778 35.681-.247.093-.496.178-.744.265-.315.111-.63.22-.949.322-.262.084-.526.163-.79.241a38.352 38.352 0 0 1-1.743.474 40.965 40.965 0 0 1-1.766.391c-.349.068-.699.129-1.052.189-.248.041-.496.083-.744.12-.371.054-.744.099-1.116.142-.235.027-.47.057-.706.081-.412.04-.825.068-1.241.095-.2.013-.401.031-.602.041-.616.03-1.236.047-1.859.047h-2.572c-.623 0-1.241-.017-1.857-.047-.209-.01-.418-.029-.627-.043a37.094 37.094 0 0 1-1.208-.092c-.252-.025-.503-.057-.754-.086a36.75 36.75 0 0 1-1.057-.135c-.272-.04-.542-.085-.813-.13a34.688 34.688 0 0 1-1.821-.35 44.395 44.395 0 0 1-1.772-.431 42.707 42.707 0 0 1-1.726-.507c-.313-.1-.623-.207-.932-.316-.246-.086-.492-.171-.737-.262-14.459-5.41-24.786-19.364-24.786-35.687zm14.674 66.649 13.674 22.098-6.095 3.966-13.302-24.01 5.723-2.054zm-30.534 6.029h8.531l19.648 35.459a8.087 8.087 0 0 0 5.118 3.927c.301.074.602.127.906.167.097.013.193.017.29.026.207.019.415.034.622.038.044.001.089.009.134.009.057 0 .113-.011.17-.012.273-.005.544-.025.815-.059.082-.01.165-.016.247-.029.336-.052.669-.124.997-.218.073-.02.144-.048.217-.071a8.099 8.099 0 0 0 1.406-.596l9.21 15.327a8.083 8.083 0 0 0 13.856-.001l9.208-15.325c.119.065.238.125.359.183.088.042.178.081.267.12.255.111.516.209.78.293.072.023.142.05.216.071.328.094.661.166.997.218.082.013.165.018.247.029.27.033.541.053.815.059.057.001.113.012.17.012.044 0 .089-.008.134-.009a7.66 7.66 0 0 0 .622-.038c.097-.009.194-.013.29-.026.304-.04.607-.093.906-.167a8.076 8.076 0 0 0 5.117-3.927l19.648-35.459h8.534c18.387 0 33.346 14.959 33.346 33.346v9.064a147.727 147.727 0 0 1-19.331 12.437l-.474.255v-16.171a8.08 8.08 0 0 0-8.082-8.082 8.08 8.08 0 0 0-8.082 8.082v23.517a146.451 146.451 0 0 1-31.964 8.266c-.218.03-.434.063-.653.093a151.625 151.625 0 0 1-5.81.664c-1.094.106-2.189.203-3.288.283-.968.07-1.94.123-2.912.175-.814.044-1.626.096-2.442.126-1.844.068-3.692.11-5.547.11-1.761 0-3.514-.044-5.263-.105-.485-.017-.969-.033-1.452-.055-1.571-.07-3.137-.163-4.698-.281-.774-.059-1.543-.135-2.314-.206a145.59 145.59 0 0 1-38.886-9.112v-23.475a8.08 8.08 0 0 0-8.082-8.082 8.08 8.08 0 0 0-8.082 8.082v16.086a147.073 147.073 0 0 1-19.809-12.688v-8.983c-.002-18.388 14.959-33.347 33.348-33.347zM461.308 421.201l-26.43 29.05-13.407-13.553a8.083 8.083 0 0 0-11.493 11.366l19.399 19.609a8.078 8.078 0 0 0 5.746 2.399l.168-.002a8.083 8.083 0 0 0 5.81-2.64l32.164-35.351a8.085 8.085 0 0 0-.539-11.418 8.085 8.085 0 0 0-11.418.54z"/><g style="opacity:.1"><path style="fill:#231f20" d="M184.353 366.052c0-19.102 12.929-35.175 30.514-39.965l-.811-1.463h-13.293c-22.886 0-41.43 18.549-41.43 41.428v13.009a155.08 155.08 0 0 0 25.021 16.334v-29.343z"/></g><g style="opacity:.1"><path style="fill:#231f20" d="M216.323 198.962c0-30.74 22.718-56.167 52.281-60.428a61.379 61.379 0 0 0-8.789-.639h-7.632c-33.726 0-61.067 27.342-61.067 61.067v20.885c3.456-3.066 7.989-4.94 12.978-4.94 1.532 0 3.018.192 4.449.526v-6.24a93.127 93.127 0 0 0 7.781 1.36v-11.591h-.001z"/></g><g style="opacity:.1"><path style="fill:#231f20" d="M233.881 260.028v-48.992c-7.655.613-16.155.203-25.469-1.843v50.835c0 25.498 20.674 46.169 46.171 46.169h2.572c3.953 0 7.788-.499 11.448-1.432-19.96-5.095-34.722-23.192-34.722-44.737z"/></g><g style="opacity:.1"><path style="fill:#231f20" d="M401.399 440.119c0-30.918 21.994-56.693 51.19-62.548a64.043 64.043 0 0 0-12.611-1.252c-35.236 0-63.799 28.564-63.799 63.8 0 35.234 28.563 63.799 63.799 63.799 4.319 0 8.535-.434 12.611-1.252-29.197-5.855-51.19-31.631-51.19-62.547z"/></g></svg>
