<svg xmlns="http://www.w3.org/2000/svg" viewBox="0 0 256 256" xml:space="preserve"><path fill="#F0C020" d="M27.208 86.744c-3.653-1.207-7.425-2.262-9.544-11.386-1.951 8.404-5.076 9.91-9.544 11.386 7.286 2.408 8.385 6.394 9.544 11.386 1.997-8.605 5.299-9.984 9.544-11.386zM247.88 86.744c-3.653-1.207-7.425-2.262-9.544-11.386-1.951 8.404-5.076 9.91-9.544 11.386 7.286 2.408 8.385 6.394 9.544 11.386 1.997-8.605 5.299-9.984 9.544-11.386zM136.213 38.744c-3.653-1.207-7.425-2.262-9.544-11.386-1.951 8.404-5.076 9.91-9.544 11.386 7.286 2.408 8.385 6.394 9.544 11.386 1.997-8.605 5.299-9.984 9.544-11.386z"/><circle fill="#FEB69F" cx="64.082" cy="65.036" r="24.393"/><path fill="#72C2E9" d="M100.3 125.652v11.94a27.364 27.364 0 0 0-6.3 17.519h-8.1c0 7.168 5.821 13.001 13 13.001H27.86v-42.46c0-20.01 16.22-36.22 36.22-36.22 19.974.001 36.22 16.185 36.22 36.22z"/><path fill="#C5E5FE" d="M90.3 136.804a2.5 2.5 0 0 1-2.5-2.5v-4.843a2.5 2.5 0 1 1 5 0v4.843a2.5 2.5 0 0 1-2.5 2.5zm-3.155-16.7a23.65 23.65 0 0 0-23.064-18.171 2.5 2.5 0 1 1 0-5 28.635 28.635 0 0 1 27.926 22.002 2.5 2.5 0 1 1-4.862 1.169z"/><circle fill="#FEB69F" cx="128" cy="86.747" r="18.654"/><path fill="#72C2E9" d="M155.7 133.098v4.49c-4.95-6.03-12.63-9.98-21.2-9.98h-13c-8.53 0-16.16 3.89-21.2 9.98v-4.49c0-15.3 12.4-27.7 27.7-27.7 15.34 0 27.7 12.43 27.7 27.7z"/><circle fill="#FEB69F" cx="191.919" cy="65.036" r="24.393"/><path fill="#72C2E9" d="M228.14 125.652v42.46H157.1c7.18 0 13-5.821 13-13.001H162c0-6.66-2.36-12.759-6.3-17.519v-11.94c0-20.01 16.21-36.22 36.22-36.22 20.044.001 36.22 16.261 36.22 36.22z"/><path fill="#C5E5FE" d="M218.14 160.613a2.5 2.5 0 0 1-2.5-2.5v-2.652a2.5 2.5 0 1 1 5 0v2.652a2.5 2.5 0 0 1-2.5 2.5zm0-12.653a2.5 2.5 0 0 1-2.5-2.5v-19.808c0-13.079-10.641-23.72-23.72-23.72a2.5 2.5 0 1 1 0-5c15.836 0 28.72 12.884 28.72 28.72v19.808a2.5 2.5 0 0 1-2.5 2.5z"/><path fill="#F0C020" d="M249.33 173.111v55.472H6.67v-55.472a5 5 0 0 1 5-5h232.66a5 5 0 0 1 5 5z"/><path fill="#FC5D3D" d="M170.1 155.112c0 7.18-5.82 13.001-13 13.001H98.9c-7.167 0-13-5.82-13-13.001h84.2z"/><path fill="#EFEFEF" d="M162 155.112H94c0-6.66 2.36-12.764 6.3-17.524 5.04-6.09 12.67-9.98 21.2-9.98h13c8.57 0 16.25 3.95 21.2 9.98a27.378 27.378 0 0 1 6.3 17.524z"/><path fill="#FFF" d="M148.494 147.335a16.484 16.484 0 0 0-.769-1.241 2.499 2.499 0 1 1 4.129-2.819c.354.519.691 1.063 1.001 1.615a2.5 2.5 0 0 1-4.361 2.445zm-7.282-6.768a15.934 15.934 0 0 0-6.711-1.455 2.5 2.5 0 1 1 0-5c3.084 0 6.045.644 8.802 1.913a2.5 2.5 0 0 1-2.091 4.542z"/><path fill="#F8E5B0" d="M239.334 221.932H33.638a2.5 2.5 0 1 1 0-5h203.196v-37.804a2.5 2.5 0 1 1 5 0v40.304a2.5 2.5 0 0 1-2.5 2.5zm-215.696 0H16a2.5 2.5 0 1 1 0-5h7.638a2.5 2.5 0 1 1 0 5z"/><path d="M15.275 98.684c.588 2.53 4.192 2.529 4.779 0 1.757-7.574 4.343-8.429 7.923-9.611 2.236-.739 2.241-3.919 0-4.659-3.439-1.133-6.125-1.865-7.924-9.612-.585-2.524-4.195-2.518-4.779 0-1.759 7.574-4.211 8.385-7.924 9.612-2.236.739-2.241 3.918 0 4.658 6.168 2.038 6.867 5.051 7.925 9.612zm2.399-16.161c1.107 1.993 2.367 3.312 3.668 4.244-1.358.954-2.577 2.234-3.629 4.094-.869-1.464-2.075-2.849-3.84-4.061 1.428-.98 2.706-2.309 3.801-4.277zM235.946 98.684c.588 2.53 4.192 2.529 4.779 0 1.757-7.574 4.344-8.429 7.923-9.611 2.236-.739 2.241-3.919 0-4.659-3.439-1.133-6.125-1.865-7.924-9.612-.585-2.524-4.195-2.518-4.779 0-1.759 7.574-4.211 8.385-7.924 9.612-2.236.739-2.241 3.918 0 4.658 6.169 2.038 6.868 5.051 7.925 9.612zm2.399-16.161c1.107 1.993 2.367 3.312 3.668 4.244-1.358.954-2.577 2.234-3.629 4.094-.869-1.464-2.075-2.849-3.84-4.061 1.429-.98 2.707-2.309 3.801-4.277zM124.28 50.684c.588 2.53 4.192 2.529 4.779 0 1.757-7.574 4.343-8.429 7.923-9.611 2.236-.739 2.241-3.919 0-4.659-3.439-1.133-6.125-1.865-7.924-9.612-.585-2.524-4.195-2.518-4.779 0-1.759 7.574-4.211 8.385-7.924 9.612-2.236.739-2.241 3.918 0 4.658 6.168 2.038 6.867 5.051 7.925 9.612zm2.399-16.161c1.107 1.993 2.367 3.312 3.668 4.244-1.358.954-2.577 2.234-3.629 4.094-.869-1.464-2.075-2.849-3.84-4.061 1.428-.98 2.706-2.309 3.801-4.277zM48.72 65.038c0 8.47 6.89 15.36 15.36 15.36 8.47 0 15.36-6.89 15.36-15.36 0-1.38-1.12-2.5-2.49-2.5a2.51 2.51 0 0 0-2.51 2.5c0 5.7-4.65 10.35-10.36 10.36-5.7-.01-10.35-4.66-10.36-10.36a2.5 2.5 0 0 0-5 0zM48.58 43.058h-.01a2.501 2.501 0 0 0-.59 3.49c.762 1.094 2.332 1.4 3.48.6a2.52 2.52 0 0 0 .6-3.49c-.77-1.081-2.39-1.37-3.48-.6zM135.58 84.248a2.5 2.5 0 0 0-2.5 2.5c0 2.8-2.28 5.08-5.08 5.08-2.8 0-5.08-2.28-5.08-5.08a2.5 2.5 0 0 0-5 0c0 5.55 4.52 10.08 10.08 10.08s10.08-4.53 10.08-10.08a2.5 2.5 0 0 0-2.5-2.5zM205.84 65.038a2.5 2.5 0 0 0-5 0c-.01 4.91-4.01 8.91-8.92 8.92-4.91-.01-8.91-4.01-8.92-8.92a2.5 2.5 0 0 0-5 0c0 7.67 6.25 13.92 13.92 13.92s13.92-6.25 13.92-13.92zM226.85 115.718a2.502 2.502 0 0 0-1.93 2.97c.255 1.225 1.446 2.199 2.96 1.93a2.51 2.51 0 0 0 1.93-2.96c-.28-1.32-1.63-2.22-2.96-1.94zM6.67 206.088a2.5 2.5 0 0 0-2.5 2.5v19.99a2.5 2.5 0 0 0 5 0v-19.99a2.5 2.5 0 0 0-2.5-2.5z"/><circle cx="6.67" cy="198.588" r="2.5"/><path d="M4.17 188.588c0 1.37 1.12 2.5 2.5 2.5s2.5-1.13 2.5-2.5v-15.48c0-1.37 1.12-2.49 2.5-2.5h232.66c1.38.01 2.5 1.13 2.5 2.5v55.47a2.51 2.51 0 0 0 2.5 2.51c1.38 0 2.5-1.13 2.5-2.51v-55.47c0-4.13-3.37-7.49-7.5-7.5h-13.69v-37.5c0-1.37-1.12-2.5-2.5-2.5s-2.5 1.13-2.5 2.5v37.5h-57.173c2.556-2.764 4.133-6.447 4.133-10.5 0-1.373-1.131-2.5-2.5-2.5h-5.706a30.018 30.018 0 0 0-6.194-15.89v-11.07c.03-18.55 15.16-33.68 33.72-33.72 12.55 0 23.99 6.91 29.85 18.03a2.5 2.5 0 0 0 3.38 1.05 2.499 2.499 0 0 0 1.04-3.38 38.63 38.63 0 0 0-21.966-18.677c8.625-4.454 14.586-13.426 14.586-23.913 0-14.815-11.95-26.879-26.89-26.9-14.919.021-26.89 12.051-26.89 26.9 0 10.484 5.936 19.443 14.557 23.903-12.765 4.267-22.765 15.136-25.583 28.825a30.366 30.366 0 0 0-15.208-12.866c6.187-3.695 10.354-10.439 10.354-18.153 0-11.66-9.49-21.15-21.15-21.15-11.66 0-21.15 9.49-21.15 21.15 0 7.713 4.167 14.458 10.354 18.153a30.366 30.366 0 0 0-15.208 12.866c-2.8-13.612-12.735-24.519-25.586-28.825 8.62-4.458 14.56-13.417 14.56-23.904 0-14.857-11.98-26.879-26.89-26.9-1.84 0-3.68.19-5.46.56a2.514 2.514 0 0 0-1.95 2.96c.28 1.32 1.62 2.21 2.96 1.94 1.45-.3 2.95-.46 4.45-.46 12.05.03 21.87 9.85 21.9 21.9-.03 12.05-9.85 21.87-21.9 21.89-12.05-.02-21.87-9.84-21.89-21.89 0-4.03 1.1-7.96 3.18-11.38.72-1.18.35-2.72-.83-3.44a2.512 2.512 0 0 0-3.44.84c-2.56 4.2-3.91 9.03-3.91 13.98 0 10.419 5.902 19.422 14.56 23.902-15.217 5.095-26.39 19.479-26.39 36.717v39.95H11.67c-4.13.01-7.5 3.37-7.5 7.5v15.482zm165.85-123.55c.03-12.05 9.85-21.87 21.9-21.9 12.05.03 21.87 9.85 21.89 21.9-.02 12.05-9.84 21.87-21.89 21.89-12.05-.02-21.87-9.84-21.9-21.89zm-12.699 100.57h-58.61a10.5 10.5 0 0 1-10.011-8h78.6a10.49 10.49 0 0 1-9.979 8zm-60.701-13c1.258-12.679 11.967-22.5 24.88-22.5h13.01c13.207 0 23.637 10.073 24.87 22.5H96.62zm34.34-27.5h-5.92v-.34c0-1.63 1.33-2.95 2.96-2.96 1.63.01 2.96 1.33 2.96 2.96v.34zm-19.11-38.36c.01-8.89 7.26-16.14 16.15-16.16 8.89.02 16.14 7.27 16.15 16.16-.01 8.89-7.26 16.14-16.15 16.15-8.89-.01-16.14-7.26-16.15-16.15zm16.15 21.15c13.394 0 24.377 10.505 25.152 23.708a29.878 29.878 0 0 0-17.192-6.458v-.38c0-4.38-3.57-7.95-7.96-7.96-4.39.01-7.96 3.58-7.96 7.96v.38a29.886 29.886 0 0 0-17.193 6.469c.77-13.208 11.755-23.719 25.153-23.719zm-97.64 17.76c0-18.609 15.037-33.709 33.72-33.73 18.535 0 33.72 14.993 33.72 33.73v11.06a30.028 30.028 0 0 0-6.193 15.89H85.9a2.512 2.512 0 0 0-2.5 2.5c0 3.931 1.467 7.635 4.122 10.5H30.36v-39.95z"/></svg>
